<svg xmlns="http://www.w3.org/2000/svg" width="504" height="94" viewBox="0 0 504 94"><rect width="100%" height="100%" rx="14" fill="#edfbf3"/><rect x="14" y="14" width="44" height="44" rx="10" fill="#c7ded1" stroke="#cbe1d4" stroke-width="1"/><text x="36" y="74" text-anchor="middle" font-family="ui-monospace, SFMono-Regular, Menlo, monospace" font-size="9" fill="#3f5247">crust</text><rect x="68" y="14" width="44" height="44" rx="10" fill="#d7eadf" stroke="#cbe1d4" stroke-width="1"/><text x="90" y="74" text-anchor="middle" font-family="ui-monospace, SFMono-Regular, Menlo, monospace" font-size="9" fill="#3f5247">mantle</text><rect x="122" y="14" width="44" height="44" rx="10" fill="#edfbf3" stroke="#cbe1d4" stroke-width="1"/><text x="144" y="74" text-anchor="middle" font-family="ui-monospace, SFMono-Regular, Menlo, monospace" font-size="9" fill="#3f5247">base</text><rect x="176" y="14" width="44" height="44" rx="10" fill="#daeee2" stroke="#cbe1d4" stroke-width="1"/><text x="198" y="74" text-anchor="middle" font-family="ui-monospace, SFMono-Regular, Menlo, monospace" font-size="9" fill="#3f5247">surface0</text><rect x="230" y="14" width="44" height="44" rx="10" fill="#cbe1d4" stroke="#cbe1d4" stroke-width="1"/><text x="252" y="74" text-anchor="middle" font-family="ui-monospace, SFMono-Regular, Menlo, monospace" font-size="9" fill="#3f5247">surface1</text><rect x="284" y="14" width="44" height="44" rx="10" fill="#bdd5c7" stroke="#cbe1d4" stroke-width="1"/><text x="306" y="74" text-anchor="middle" font-family="ui-monospace, SFMono-Regular, Menlo, monospace" font-size="9" fill="#3f5247">surface2</text><rect x="338" y="14" width="44" height="44" rx="10" fill="#3f5247" stroke="#cbe1d4" stroke-width="1"/><text x="360" y="74" text-anchor="middle" font-family="ui-monospace, SFMono-Regular, Menlo, monospace" font-size="9" fill="#3f5247">subtext</text><rect x="392" y="14" width="44" height="44" rx="10" fill="#192e23" stroke="#cbe1d4" stroke-width="1"/><text x="414" y="74" text-anchor="middle" font-family="ui-monospace, SFMono-Regular, Menlo, monospace" font-size="9" fill="#3f5247">text</text><rect x="446" y="14" width="44" height="44" rx="10" fill="#048149" stroke="#cbe1d4" stroke-width="1"/><text x="468" y="74" text-anchor="middle" font-family="ui-monospace, SFMono-Regular, Menlo, monospace" font-size="9" fill="#3f5247">jade</text></svg>
